<svg xmlns="http://www.w3.org/2000/svg" height="48" viewBox="0 96 960 960" width="48"><path d="M104.194 952.922V199.078h753.843v753.844H104.194Zm43.845-43.845h666.153V242.923H148.039v666.154Zm179.73-253.231q11.808 0 19.769-7.995 7.962-7.995 7.962-19.596 0-11.601-8.09-19.467-8.091-7.865-19.448-7.865-12.154 0-19.769 7.98-7.616 7.979-7.616 19.558t7.692 19.482q7.693 7.903 19.5 7.903Zm306.539 0q11.807 0 19.769-7.995 7.961-7.995 7.961-19.596 0-11.601-8.09-19.467-8.091-7.865-19.448-7.865-12.154 0-19.769 7.98-7.616 7.979-7.616 19.558t7.693 19.482q7.692 7.903 19.5 7.903Zm-410.73 165.306h43.845v-85.384h427.384v85.384h43.845V551l-70.794-205.23h-373.28l-71 205.55v269.832Zm55.999-299.767 43.769-131.769h315.538l44.77 131.769H279.577Zm-12.154 170.538V565.231h427.384v126.692H267.423ZM148.039 909.077V242.923v666.154Z"/></svg>