<svg xmlns="http://www.w3.org/2000/svg" height="48" viewBox="0 96 960 960" width="48"><path d="M371.077 909.077h193.691v-53.385L589.537 846q76.884-28.615 127.81-80.602 50.925-51.986 70.575-110.321H148.307q20 58.308 70.883 110.748Q270.073 818.266 346 846l25.077 9.432v53.645Zm-43.846 43.845v-68.615q-99.076-39.192-160.48-110.903-61.404-71.711-73.135-161.557v-.769l63.384.769V279.386l706.768-77.692v39.461l-478.077 52.307v88.924h480.693v39.46H385.691v190.001h457.307q-10.539 89.846-73.424 161.557-62.884 71.711-160.961 110.903v68.615H327.231Zm-36.309-570.536h55.308v-84.308l-55.308 6.422v77.886Zm-94.461 0h55.308v-74.77l-55.308 5.649v69.121Zm94.461 229.461h55.308V421.846h-55.308v190.001Zm-94.461 0h55.308V421.846h-55.308v190.001Zm272.154 297.23Z"/></svg>